<mxfile host="Electron" modified="2023-12-11T14:00:19.625Z" agent="Mozilla/5.0 (Macintosh; Intel Mac OS X 10_15_7) AppleWebKit/537.36 (KHTML, like Gecko) draw.io/22.1.2 Chrome/114.0.5735.289 Electron/25.9.4 Safari/537.36" etag="E7r8hECGU-bWivAC_FcB" version="22.1.2" type="device" pages="2">
  <diagram name="Part-1" id="f9wUE7ykQwgyWdVlDdMh">
    <mxGraphModel dx="1114" dy="796" grid="1" gridSize="10" guides="1" tooltips="1" connect="1" arrows="1" fold="1" page="1" pageScale="1" pageWidth="827" pageHeight="1169" math="0" shadow="0">
      <root>
        <mxCell id="0" />
        <mxCell id="1" parent="0" />
        <mxCell id="UBGJ6ZkFQAMO-ZRIG8c_-27" value="" style="whiteSpace=wrap;html=1;aspect=fixed;" parent="1" vertex="1">
          <mxGeometry x="400" y="480" width="40" height="40" as="geometry" />
        </mxCell>
        <mxCell id="UBGJ6ZkFQAMO-ZRIG8c_-28" value="(-,7,J)" style="whiteSpace=wrap;html=1;aspect=fixed;fillColor=#d5e8d4;strokeColor=#82b366;" parent="1" vertex="1">
          <mxGeometry x="440" y="480" width="40" height="40" as="geometry" />
        </mxCell>
        <mxCell id="UBGJ6ZkFQAMO-ZRIG8c_-29" value="(I,J,L)" style="whiteSpace=wrap;html=1;aspect=fixed;fillColor=#d5e8d4;strokeColor=#82b366;" parent="1" vertex="1">
          <mxGeometry x="400" y="520" width="40" height="40" as="geometry" />
        </mxCell>
        <mxCell id="UBGJ6ZkFQAMO-ZRIG8c_-30" value="(-,F,L)" style="whiteSpace=wrap;html=1;aspect=fixed;fillColor=#d5e8d4;strokeColor=#82b366;" parent="1" vertex="1">
          <mxGeometry x="360" y="480" width="40" height="40" as="geometry" />
        </mxCell>
        <mxCell id="UBGJ6ZkFQAMO-ZRIG8c_-31" value="(I,7,F)" style="whiteSpace=wrap;html=1;aspect=fixed;fillColor=#d5e8d4;strokeColor=#82b366;" parent="1" vertex="1">
          <mxGeometry x="400" y="440" width="40" height="40" as="geometry" />
        </mxCell>
        <mxCell id="UBGJ6ZkFQAMO-ZRIG8c_-32" value="S" style="ellipse;whiteSpace=wrap;html=1;aspect=fixed;fillColor=#dae8fc;strokeColor=#6c8ebf;" parent="1" vertex="1">
          <mxGeometry x="405" y="485" width="30" height="30" as="geometry" />
        </mxCell>
        <mxCell id="UBGJ6ZkFQAMO-ZRIG8c_-33" value="" style="whiteSpace=wrap;html=1;aspect=fixed;" parent="1" vertex="1">
          <mxGeometry x="320" y="600" width="40" height="40" as="geometry" />
        </mxCell>
        <mxCell id="UBGJ6ZkFQAMO-ZRIG8c_-34" value="&lt;font style=&quot;font-size: 8px;&quot; color=&quot;#00331a&quot;&gt;(S,-,7,J)&lt;/font&gt;" style="whiteSpace=wrap;html=1;aspect=fixed;fillColor=#d5e8d4;strokeColor=#82b366;" parent="1" vertex="1">
          <mxGeometry x="360" y="600" width="40" height="40" as="geometry" />
        </mxCell>
        <mxCell id="UBGJ6ZkFQAMO-ZRIG8c_-36" value="&lt;font style=&quot;font-size: 8px;&quot; color=&quot;#00331a&quot;&gt;(S,-,F,L)&lt;/font&gt;" style="whiteSpace=wrap;html=1;aspect=fixed;fillColor=#d5e8d4;strokeColor=#82b366;" parent="1" vertex="1">
          <mxGeometry x="280" y="600" width="40" height="40" as="geometry" />
        </mxCell>
        <mxCell id="UBGJ6ZkFQAMO-ZRIG8c_-38" value="-" style="ellipse;whiteSpace=wrap;html=1;aspect=fixed;fillColor=#dae8fc;strokeColor=#6c8ebf;" parent="1" vertex="1">
          <mxGeometry x="325" y="605" width="30" height="30" as="geometry" />
        </mxCell>
        <mxCell id="UBGJ6ZkFQAMO-ZRIG8c_-43" value="" style="whiteSpace=wrap;html=1;aspect=fixed;" parent="1" vertex="1">
          <mxGeometry x="480" y="600" width="40" height="40" as="geometry" />
        </mxCell>
        <mxCell id="UBGJ6ZkFQAMO-ZRIG8c_-45" value="&lt;font color=&quot;#003333&quot; style=&quot;font-size: 8px;&quot;&gt;(S,I,J,L)&lt;/font&gt;" style="whiteSpace=wrap;html=1;aspect=fixed;fillColor=#d5e8d4;strokeColor=#82b366;" parent="1" vertex="1">
          <mxGeometry x="480" y="640" width="40" height="40" as="geometry" />
        </mxCell>
        <mxCell id="UBGJ6ZkFQAMO-ZRIG8c_-47" value="&lt;font color=&quot;#00331a&quot; style=&quot;font-size: 8px;&quot;&gt;(S,I,7,F)&lt;/font&gt;" style="whiteSpace=wrap;html=1;aspect=fixed;fillColor=#d5e8d4;strokeColor=#82b366;" parent="1" vertex="1">
          <mxGeometry x="480" y="560" width="40" height="40" as="geometry" />
        </mxCell>
        <mxCell id="UBGJ6ZkFQAMO-ZRIG8c_-48" value="|" style="ellipse;whiteSpace=wrap;html=1;aspect=fixed;fillColor=#dae8fc;strokeColor=#6c8ebf;" parent="1" vertex="1">
          <mxGeometry x="485" y="605" width="30" height="30" as="geometry" />
        </mxCell>
        <mxCell id="UBGJ6ZkFQAMO-ZRIG8c_-49" value="" style="whiteSpace=wrap;html=1;aspect=fixed;" parent="1" vertex="1">
          <mxGeometry x="160" y="760" width="40" height="40" as="geometry" />
        </mxCell>
        <mxCell id="UBGJ6ZkFQAMO-ZRIG8c_-50" value="(S,-,7,J)" style="whiteSpace=wrap;html=1;aspect=fixed;fillColor=#d5e8d4;strokeColor=#82b366;fontSize=8;" parent="1" vertex="1">
          <mxGeometry x="200" y="760" width="40" height="40" as="geometry" />
        </mxCell>
        <mxCell id="UBGJ6ZkFQAMO-ZRIG8c_-51" value="(S,I,J,L)" style="whiteSpace=wrap;html=1;aspect=fixed;fillColor=#d5e8d4;strokeColor=#82b366;fontSize=8;" parent="1" vertex="1">
          <mxGeometry x="160" y="800" width="40" height="40" as="geometry" />
        </mxCell>
        <mxCell id="UBGJ6ZkFQAMO-ZRIG8c_-54" value="F" style="ellipse;whiteSpace=wrap;html=1;aspect=fixed;fillColor=#dae8fc;strokeColor=#6c8ebf;" parent="1" vertex="1">
          <mxGeometry x="165" y="765" width="30" height="30" as="geometry" />
        </mxCell>
        <mxCell id="UBGJ6ZkFQAMO-ZRIG8c_-58" value="" style="group" parent="1" vertex="1" connectable="0">
          <mxGeometry x="160" y="720" width="40" height="40" as="geometry" />
        </mxCell>
        <mxCell id="UBGJ6ZkFQAMO-ZRIG8c_-55" value="" style="whiteSpace=wrap;html=1;aspect=fixed;fillColor=#ffe6cc;strokeColor=#d79b00;" parent="UBGJ6ZkFQAMO-ZRIG8c_-58" vertex="1">
          <mxGeometry width="40" height="40" as="geometry" />
        </mxCell>
        <mxCell id="UBGJ6ZkFQAMO-ZRIG8c_-56" value="" style="shape=mxgraph.signs.safety.no_entry;html=1;pointerEvents=1;fillColor=#FF0000;strokeColor=#b85450;verticalLabelPosition=bottom;verticalAlign=top;align=center;" parent="UBGJ6ZkFQAMO-ZRIG8c_-58" vertex="1">
          <mxGeometry x="5" y="5" width="30" height="30" as="geometry" />
        </mxCell>
        <mxCell id="UBGJ6ZkFQAMO-ZRIG8c_-59" value="" style="group" parent="1" vertex="1" connectable="0">
          <mxGeometry x="120" y="760" width="40" height="40" as="geometry" />
        </mxCell>
        <mxCell id="UBGJ6ZkFQAMO-ZRIG8c_-60" value="" style="whiteSpace=wrap;html=1;aspect=fixed;fillColor=#ffe6cc;strokeColor=#d79b00;" parent="UBGJ6ZkFQAMO-ZRIG8c_-59" vertex="1">
          <mxGeometry width="40" height="40" as="geometry" />
        </mxCell>
        <mxCell id="UBGJ6ZkFQAMO-ZRIG8c_-61" value="" style="shape=mxgraph.signs.safety.no_entry;html=1;pointerEvents=1;fillColor=#FF0000;strokeColor=#b85450;verticalLabelPosition=bottom;verticalAlign=top;align=center;" parent="UBGJ6ZkFQAMO-ZRIG8c_-59" vertex="1">
          <mxGeometry x="5" y="5" width="30" height="30" as="geometry" />
        </mxCell>
        <mxCell id="UBGJ6ZkFQAMO-ZRIG8c_-62" value="" style="group" parent="1" vertex="1" connectable="0">
          <mxGeometry x="320" y="640" width="40" height="40" as="geometry" />
        </mxCell>
        <mxCell id="UBGJ6ZkFQAMO-ZRIG8c_-63" value="" style="whiteSpace=wrap;html=1;aspect=fixed;fillColor=#ffe6cc;strokeColor=#d79b00;" parent="UBGJ6ZkFQAMO-ZRIG8c_-62" vertex="1">
          <mxGeometry width="40" height="40" as="geometry" />
        </mxCell>
        <mxCell id="UBGJ6ZkFQAMO-ZRIG8c_-64" value="" style="shape=mxgraph.signs.safety.no_entry;html=1;pointerEvents=1;fillColor=#FF0000;strokeColor=#b85450;verticalLabelPosition=bottom;verticalAlign=top;align=center;" parent="UBGJ6ZkFQAMO-ZRIG8c_-62" vertex="1">
          <mxGeometry x="5" y="5" width="30" height="30" as="geometry" />
        </mxCell>
        <mxCell id="UBGJ6ZkFQAMO-ZRIG8c_-65" value="" style="group" parent="1" vertex="1" connectable="0">
          <mxGeometry x="320" y="560" width="40" height="40" as="geometry" />
        </mxCell>
        <mxCell id="UBGJ6ZkFQAMO-ZRIG8c_-66" value="" style="whiteSpace=wrap;html=1;aspect=fixed;fillColor=#ffe6cc;strokeColor=#d79b00;" parent="UBGJ6ZkFQAMO-ZRIG8c_-65" vertex="1">
          <mxGeometry width="40" height="40" as="geometry" />
        </mxCell>
        <mxCell id="UBGJ6ZkFQAMO-ZRIG8c_-67" value="" style="shape=mxgraph.signs.safety.no_entry;html=1;pointerEvents=1;fillColor=#FF0000;strokeColor=#b85450;verticalLabelPosition=bottom;verticalAlign=top;align=center;" parent="UBGJ6ZkFQAMO-ZRIG8c_-65" vertex="1">
          <mxGeometry x="5" y="5" width="30" height="30" as="geometry" />
        </mxCell>
        <mxCell id="UBGJ6ZkFQAMO-ZRIG8c_-68" value="" style="group" parent="1" vertex="1" connectable="0">
          <mxGeometry x="440" y="600" width="40" height="40" as="geometry" />
        </mxCell>
        <mxCell id="UBGJ6ZkFQAMO-ZRIG8c_-69" value="" style="whiteSpace=wrap;html=1;aspect=fixed;fillColor=#ffe6cc;strokeColor=#d79b00;" parent="UBGJ6ZkFQAMO-ZRIG8c_-68" vertex="1">
          <mxGeometry width="40" height="40" as="geometry" />
        </mxCell>
        <mxCell id="UBGJ6ZkFQAMO-ZRIG8c_-70" value="" style="shape=mxgraph.signs.safety.no_entry;html=1;pointerEvents=1;fillColor=#FF0000;strokeColor=#b85450;verticalLabelPosition=bottom;verticalAlign=top;align=center;" parent="UBGJ6ZkFQAMO-ZRIG8c_-68" vertex="1">
          <mxGeometry x="5" y="5" width="30" height="30" as="geometry" />
        </mxCell>
        <mxCell id="UBGJ6ZkFQAMO-ZRIG8c_-71" value="" style="group" parent="1" vertex="1" connectable="0">
          <mxGeometry x="520" y="600" width="40" height="40" as="geometry" />
        </mxCell>
        <mxCell id="UBGJ6ZkFQAMO-ZRIG8c_-72" value="" style="whiteSpace=wrap;html=1;aspect=fixed;fillColor=#ffe6cc;strokeColor=#d79b00;" parent="UBGJ6ZkFQAMO-ZRIG8c_-71" vertex="1">
          <mxGeometry width="40" height="40" as="geometry" />
        </mxCell>
        <mxCell id="UBGJ6ZkFQAMO-ZRIG8c_-73" value="" style="shape=mxgraph.signs.safety.no_entry;html=1;pointerEvents=1;fillColor=#FF0000;strokeColor=#b85450;verticalLabelPosition=bottom;verticalAlign=top;align=center;" parent="UBGJ6ZkFQAMO-ZRIG8c_-71" vertex="1">
          <mxGeometry x="5" y="5" width="30" height="30" as="geometry" />
        </mxCell>
        <mxCell id="UBGJ6ZkFQAMO-ZRIG8c_-76" value="" style="whiteSpace=wrap;html=1;aspect=fixed;" parent="1" vertex="1">
          <mxGeometry x="320" y="760" width="40" height="40" as="geometry" />
        </mxCell>
        <mxCell id="UBGJ6ZkFQAMO-ZRIG8c_-77" value="(S,-,F,L)" style="whiteSpace=wrap;html=1;aspect=fixed;fillColor=#d5e8d4;strokeColor=#82b366;fontSize=8;" parent="1" vertex="1">
          <mxGeometry x="280" y="760" width="40" height="40" as="geometry" />
        </mxCell>
        <mxCell id="UBGJ6ZkFQAMO-ZRIG8c_-78" value="(S,I,J,L)" style="whiteSpace=wrap;html=1;aspect=fixed;fillColor=#d5e8d4;strokeColor=#82b366;fontSize=8;" parent="1" vertex="1">
          <mxGeometry x="320" y="800" width="40" height="40" as="geometry" />
        </mxCell>
        <mxCell id="UBGJ6ZkFQAMO-ZRIG8c_-79" value="7" style="ellipse;whiteSpace=wrap;html=1;aspect=fixed;fillColor=#dae8fc;strokeColor=#6c8ebf;" parent="1" vertex="1">
          <mxGeometry x="325" y="765" width="30" height="30" as="geometry" />
        </mxCell>
        <mxCell id="UBGJ6ZkFQAMO-ZRIG8c_-80" value="" style="group" parent="1" vertex="1" connectable="0">
          <mxGeometry x="320" y="720" width="40" height="40" as="geometry" />
        </mxCell>
        <mxCell id="UBGJ6ZkFQAMO-ZRIG8c_-81" value="" style="whiteSpace=wrap;html=1;aspect=fixed;fillColor=#ffe6cc;strokeColor=#d79b00;" parent="UBGJ6ZkFQAMO-ZRIG8c_-80" vertex="1">
          <mxGeometry width="40" height="40" as="geometry" />
        </mxCell>
        <mxCell id="UBGJ6ZkFQAMO-ZRIG8c_-82" value="" style="shape=mxgraph.signs.safety.no_entry;html=1;pointerEvents=1;fillColor=#FF0000;strokeColor=#b85450;verticalLabelPosition=bottom;verticalAlign=top;align=center;" parent="UBGJ6ZkFQAMO-ZRIG8c_-80" vertex="1">
          <mxGeometry x="5" y="5" width="30" height="30" as="geometry" />
        </mxCell>
        <mxCell id="UBGJ6ZkFQAMO-ZRIG8c_-83" value="" style="group" parent="1" vertex="1" connectable="0">
          <mxGeometry x="360" y="760" width="40" height="40" as="geometry" />
        </mxCell>
        <mxCell id="UBGJ6ZkFQAMO-ZRIG8c_-84" value="" style="whiteSpace=wrap;html=1;aspect=fixed;fillColor=#ffe6cc;strokeColor=#d79b00;" parent="UBGJ6ZkFQAMO-ZRIG8c_-83" vertex="1">
          <mxGeometry width="40" height="40" as="geometry" />
        </mxCell>
        <mxCell id="UBGJ6ZkFQAMO-ZRIG8c_-85" value="" style="shape=mxgraph.signs.safety.no_entry;html=1;pointerEvents=1;fillColor=#FF0000;strokeColor=#b85450;verticalLabelPosition=bottom;verticalAlign=top;align=center;" parent="UBGJ6ZkFQAMO-ZRIG8c_-83" vertex="1">
          <mxGeometry x="5" y="5" width="30" height="30" as="geometry" />
        </mxCell>
        <mxCell id="UBGJ6ZkFQAMO-ZRIG8c_-86" value="" style="whiteSpace=wrap;html=1;aspect=fixed;" parent="1" vertex="1">
          <mxGeometry x="480" y="760" width="40" height="40" as="geometry" />
        </mxCell>
        <mxCell id="UBGJ6ZkFQAMO-ZRIG8c_-87" value="(S,-,7,F)" style="whiteSpace=wrap;html=1;aspect=fixed;fillColor=#d5e8d4;strokeColor=#82b366;fontSize=8;" parent="1" vertex="1">
          <mxGeometry x="480" y="720" width="40" height="40" as="geometry" />
        </mxCell>
        <mxCell id="UBGJ6ZkFQAMO-ZRIG8c_-88" value="(S,I,F,L)" style="whiteSpace=wrap;html=1;aspect=fixed;fillColor=#d5e8d4;strokeColor=#82b366;fontSize=8;" parent="1" vertex="1">
          <mxGeometry x="440" y="760" width="40" height="40" as="geometry" />
        </mxCell>
        <mxCell id="UBGJ6ZkFQAMO-ZRIG8c_-89" value="J" style="ellipse;whiteSpace=wrap;html=1;aspect=fixed;fillColor=#dae8fc;strokeColor=#6c8ebf;" parent="1" vertex="1">
          <mxGeometry x="485" y="765" width="30" height="30" as="geometry" />
        </mxCell>
        <mxCell id="UBGJ6ZkFQAMO-ZRIG8c_-90" value="" style="group" parent="1" vertex="1" connectable="0">
          <mxGeometry x="520" y="760" width="40" height="40" as="geometry" />
        </mxCell>
        <mxCell id="UBGJ6ZkFQAMO-ZRIG8c_-91" value="" style="whiteSpace=wrap;html=1;aspect=fixed;fillColor=#ffe6cc;strokeColor=#d79b00;" parent="UBGJ6ZkFQAMO-ZRIG8c_-90" vertex="1">
          <mxGeometry width="40" height="40" as="geometry" />
        </mxCell>
        <mxCell id="UBGJ6ZkFQAMO-ZRIG8c_-92" value="" style="shape=mxgraph.signs.safety.no_entry;html=1;pointerEvents=1;fillColor=#FF0000;strokeColor=#b85450;verticalLabelPosition=bottom;verticalAlign=top;align=center;" parent="UBGJ6ZkFQAMO-ZRIG8c_-90" vertex="1">
          <mxGeometry x="5" y="5" width="30" height="30" as="geometry" />
        </mxCell>
        <mxCell id="UBGJ6ZkFQAMO-ZRIG8c_-93" value="" style="group" parent="1" vertex="1" connectable="0">
          <mxGeometry x="480" y="800" width="40" height="40" as="geometry" />
        </mxCell>
        <mxCell id="UBGJ6ZkFQAMO-ZRIG8c_-94" value="" style="whiteSpace=wrap;html=1;aspect=fixed;fillColor=#ffe6cc;strokeColor=#d79b00;" parent="UBGJ6ZkFQAMO-ZRIG8c_-93" vertex="1">
          <mxGeometry width="40" height="40" as="geometry" />
        </mxCell>
        <mxCell id="UBGJ6ZkFQAMO-ZRIG8c_-95" value="" style="shape=mxgraph.signs.safety.no_entry;html=1;pointerEvents=1;fillColor=#FF0000;strokeColor=#b85450;verticalLabelPosition=bottom;verticalAlign=top;align=center;" parent="UBGJ6ZkFQAMO-ZRIG8c_-93" vertex="1">
          <mxGeometry x="5" y="5" width="30" height="30" as="geometry" />
        </mxCell>
        <mxCell id="UBGJ6ZkFQAMO-ZRIG8c_-96" value="" style="whiteSpace=wrap;html=1;aspect=fixed;" parent="1" vertex="1">
          <mxGeometry x="640" y="760" width="40" height="40" as="geometry" />
        </mxCell>
        <mxCell id="UBGJ6ZkFQAMO-ZRIG8c_-99" value="L" style="ellipse;whiteSpace=wrap;html=1;aspect=fixed;fillColor=#dae8fc;strokeColor=#6c8ebf;" parent="1" vertex="1">
          <mxGeometry x="645" y="765" width="30" height="30" as="geometry" />
        </mxCell>
        <mxCell id="UBGJ6ZkFQAMO-ZRIG8c_-100" value="" style="group" parent="1" vertex="1" connectable="0">
          <mxGeometry x="640" y="800" width="40" height="40" as="geometry" />
        </mxCell>
        <mxCell id="UBGJ6ZkFQAMO-ZRIG8c_-101" value="" style="whiteSpace=wrap;html=1;aspect=fixed;fillColor=#ffe6cc;strokeColor=#d79b00;" parent="UBGJ6ZkFQAMO-ZRIG8c_-100" vertex="1">
          <mxGeometry width="40" height="40" as="geometry" />
        </mxCell>
        <mxCell id="UBGJ6ZkFQAMO-ZRIG8c_-102" value="" style="shape=mxgraph.signs.safety.no_entry;html=1;pointerEvents=1;fillColor=#FF0000;strokeColor=#b85450;verticalLabelPosition=bottom;verticalAlign=top;align=center;" parent="UBGJ6ZkFQAMO-ZRIG8c_-100" vertex="1">
          <mxGeometry x="5" y="5" width="30" height="30" as="geometry" />
        </mxCell>
        <mxCell id="UBGJ6ZkFQAMO-ZRIG8c_-103" value="" style="group" parent="1" vertex="1" connectable="0">
          <mxGeometry x="600" y="760" width="40" height="40" as="geometry" />
        </mxCell>
        <mxCell id="UBGJ6ZkFQAMO-ZRIG8c_-104" value="" style="whiteSpace=wrap;html=1;aspect=fixed;fillColor=#ffe6cc;strokeColor=#d79b00;" parent="UBGJ6ZkFQAMO-ZRIG8c_-103" vertex="1">
          <mxGeometry width="40" height="40" as="geometry" />
        </mxCell>
        <mxCell id="UBGJ6ZkFQAMO-ZRIG8c_-105" value="" style="shape=mxgraph.signs.safety.no_entry;html=1;pointerEvents=1;fillColor=#FF0000;strokeColor=#b85450;verticalLabelPosition=bottom;verticalAlign=top;align=center;" parent="UBGJ6ZkFQAMO-ZRIG8c_-103" vertex="1">
          <mxGeometry x="5" y="5" width="30" height="30" as="geometry" />
        </mxCell>
        <mxCell id="UBGJ6ZkFQAMO-ZRIG8c_-109" value="" style="group" parent="1" vertex="1" connectable="0">
          <mxGeometry x="257" y="80" width="314" height="320" as="geometry" />
        </mxCell>
        <mxCell id="UBGJ6ZkFQAMO-ZRIG8c_-6" value="" style="group;rotation=90;" parent="UBGJ6ZkFQAMO-ZRIG8c_-109" vertex="1" connectable="0">
          <mxGeometry x="220" y="60" width="40" height="40" as="geometry" />
        </mxCell>
        <mxCell id="UBGJ6ZkFQAMO-ZRIG8c_-4" value="" style="endArrow=none;html=1;rounded=0;strokeWidth=3;" parent="UBGJ6ZkFQAMO-ZRIG8c_-6" edge="1">
          <mxGeometry width="50" height="50" relative="1" as="geometry">
            <mxPoint as="sourcePoint" />
            <mxPoint x="40" as="targetPoint" />
          </mxGeometry>
        </mxCell>
        <mxCell id="UBGJ6ZkFQAMO-ZRIG8c_-5" value="" style="endArrow=none;html=1;rounded=0;strokeWidth=3;" parent="UBGJ6ZkFQAMO-ZRIG8c_-6" edge="1">
          <mxGeometry width="50" height="50" relative="1" as="geometry">
            <mxPoint x="40" y="40" as="sourcePoint" />
            <mxPoint x="40" as="targetPoint" />
          </mxGeometry>
        </mxCell>
        <mxCell id="UBGJ6ZkFQAMO-ZRIG8c_-7" value="" style="endArrow=none;html=1;rounded=0;strokeWidth=3;" parent="UBGJ6ZkFQAMO-ZRIG8c_-109" edge="1">
          <mxGeometry width="50" height="50" relative="1" as="geometry">
            <mxPoint x="180" y="60" as="sourcePoint" />
            <mxPoint x="140" y="60" as="targetPoint" />
          </mxGeometry>
        </mxCell>
        <mxCell id="UBGJ6ZkFQAMO-ZRIG8c_-9" value="" style="group" parent="UBGJ6ZkFQAMO-ZRIG8c_-109" vertex="1" connectable="0">
          <mxGeometry x="60" y="60" width="40" height="40" as="geometry" />
        </mxCell>
        <mxCell id="UBGJ6ZkFQAMO-ZRIG8c_-2" value="" style="endArrow=none;html=1;rounded=0;strokeWidth=3;" parent="UBGJ6ZkFQAMO-ZRIG8c_-9" edge="1">
          <mxGeometry width="50" height="50" relative="1" as="geometry">
            <mxPoint y="40" as="sourcePoint" />
            <mxPoint as="targetPoint" />
          </mxGeometry>
        </mxCell>
        <mxCell id="UBGJ6ZkFQAMO-ZRIG8c_-3" value="" style="endArrow=none;html=1;rounded=0;strokeWidth=3;" parent="UBGJ6ZkFQAMO-ZRIG8c_-9" edge="1">
          <mxGeometry width="50" height="50" relative="1" as="geometry">
            <mxPoint x="40" as="sourcePoint" />
            <mxPoint as="targetPoint" />
          </mxGeometry>
        </mxCell>
        <mxCell id="UBGJ6ZkFQAMO-ZRIG8c_-10" value="" style="endArrow=none;html=1;rounded=0;strokeWidth=3;" parent="UBGJ6ZkFQAMO-ZRIG8c_-109" edge="1">
          <mxGeometry width="50" height="50" relative="1" as="geometry">
            <mxPoint x="180" y="260" as="sourcePoint" />
            <mxPoint x="140" y="260" as="targetPoint" />
          </mxGeometry>
        </mxCell>
        <mxCell id="UBGJ6ZkFQAMO-ZRIG8c_-11" value="" style="endArrow=none;html=1;rounded=0;strokeWidth=3;" parent="UBGJ6ZkFQAMO-ZRIG8c_-109" edge="1">
          <mxGeometry width="50" height="50" relative="1" as="geometry">
            <mxPoint x="260" y="180" as="sourcePoint" />
            <mxPoint x="260" y="140" as="targetPoint" />
          </mxGeometry>
        </mxCell>
        <mxCell id="UBGJ6ZkFQAMO-ZRIG8c_-12" value="" style="endArrow=none;html=1;rounded=0;strokeWidth=3;" parent="UBGJ6ZkFQAMO-ZRIG8c_-109" edge="1">
          <mxGeometry width="50" height="50" relative="1" as="geometry">
            <mxPoint x="60" y="140" as="sourcePoint" />
            <mxPoint x="60" y="180" as="targetPoint" />
          </mxGeometry>
        </mxCell>
        <mxCell id="UBGJ6ZkFQAMO-ZRIG8c_-13" value="" style="group;rotation=-180;" parent="UBGJ6ZkFQAMO-ZRIG8c_-109" vertex="1" connectable="0">
          <mxGeometry x="220" y="220" width="40" height="40" as="geometry" />
        </mxCell>
        <mxCell id="UBGJ6ZkFQAMO-ZRIG8c_-14" value="" style="endArrow=none;html=1;rounded=0;strokeWidth=3;" parent="UBGJ6ZkFQAMO-ZRIG8c_-13" edge="1">
          <mxGeometry width="50" height="50" relative="1" as="geometry">
            <mxPoint x="40" as="sourcePoint" />
            <mxPoint x="40" y="40" as="targetPoint" />
          </mxGeometry>
        </mxCell>
        <mxCell id="UBGJ6ZkFQAMO-ZRIG8c_-15" value="" style="endArrow=none;html=1;rounded=0;strokeWidth=3;" parent="UBGJ6ZkFQAMO-ZRIG8c_-13" edge="1">
          <mxGeometry width="50" height="50" relative="1" as="geometry">
            <mxPoint y="40" as="sourcePoint" />
            <mxPoint x="40" y="40" as="targetPoint" />
          </mxGeometry>
        </mxCell>
        <mxCell id="UBGJ6ZkFQAMO-ZRIG8c_-16" value="" style="group;rotation=-90;" parent="UBGJ6ZkFQAMO-ZRIG8c_-109" vertex="1" connectable="0">
          <mxGeometry x="60" y="220" width="40" height="40" as="geometry" />
        </mxCell>
        <mxCell id="UBGJ6ZkFQAMO-ZRIG8c_-17" value="" style="endArrow=none;html=1;rounded=0;strokeWidth=3;" parent="UBGJ6ZkFQAMO-ZRIG8c_-16" edge="1">
          <mxGeometry width="50" height="50" relative="1" as="geometry">
            <mxPoint x="40" y="40" as="sourcePoint" />
            <mxPoint y="40" as="targetPoint" />
          </mxGeometry>
        </mxCell>
        <mxCell id="UBGJ6ZkFQAMO-ZRIG8c_-18" value="" style="endArrow=none;html=1;rounded=0;strokeWidth=3;" parent="UBGJ6ZkFQAMO-ZRIG8c_-16" edge="1">
          <mxGeometry width="50" height="50" relative="1" as="geometry">
            <mxPoint as="sourcePoint" />
            <mxPoint y="40" as="targetPoint" />
          </mxGeometry>
        </mxCell>
        <mxCell id="UBGJ6ZkFQAMO-ZRIG8c_-19" value="F" style="ellipse;whiteSpace=wrap;html=1;aspect=fixed;fillColor=#dae8fc;strokeColor=#6c8ebf;" parent="UBGJ6ZkFQAMO-ZRIG8c_-109" vertex="1">
          <mxGeometry width="30" height="30" as="geometry" />
        </mxCell>
        <mxCell id="UBGJ6ZkFQAMO-ZRIG8c_-20" value="" style="endArrow=none;dashed=1;html=1;dashPattern=1 3;strokeWidth=2;rounded=0;entryX=1;entryY=1;entryDx=0;entryDy=0;fillColor=#dae8fc;strokeColor=#6c8ebf;" parent="UBGJ6ZkFQAMO-ZRIG8c_-109" target="UBGJ6ZkFQAMO-ZRIG8c_-19" edge="1">
          <mxGeometry width="50" height="50" relative="1" as="geometry">
            <mxPoint x="60" y="60" as="sourcePoint" />
            <mxPoint x="130" y="40" as="targetPoint" />
          </mxGeometry>
        </mxCell>
        <mxCell id="UBGJ6ZkFQAMO-ZRIG8c_-21" value="7" style="ellipse;whiteSpace=wrap;html=1;aspect=fixed;fillColor=#dae8fc;strokeColor=#6c8ebf;" parent="UBGJ6ZkFQAMO-ZRIG8c_-109" vertex="1">
          <mxGeometry x="284" width="30" height="30" as="geometry" />
        </mxCell>
        <mxCell id="UBGJ6ZkFQAMO-ZRIG8c_-22" value="" style="endArrow=none;dashed=1;html=1;dashPattern=1 3;strokeWidth=2;rounded=0;entryX=0;entryY=1;entryDx=0;entryDy=0;fillColor=#dae8fc;strokeColor=#6c8ebf;" parent="UBGJ6ZkFQAMO-ZRIG8c_-109" target="UBGJ6ZkFQAMO-ZRIG8c_-21" edge="1">
          <mxGeometry width="50" height="50" relative="1" as="geometry">
            <mxPoint x="260" y="60" as="sourcePoint" />
            <mxPoint x="414" y="40" as="targetPoint" />
          </mxGeometry>
        </mxCell>
        <mxCell id="UBGJ6ZkFQAMO-ZRIG8c_-23" value="J" style="ellipse;whiteSpace=wrap;html=1;aspect=fixed;fillColor=#dae8fc;strokeColor=#6c8ebf;" parent="UBGJ6ZkFQAMO-ZRIG8c_-109" vertex="1">
          <mxGeometry x="284" y="290" width="30" height="30" as="geometry" />
        </mxCell>
        <mxCell id="UBGJ6ZkFQAMO-ZRIG8c_-24" value="" style="endArrow=none;dashed=1;html=1;dashPattern=1 3;strokeWidth=2;rounded=0;entryX=0.114;entryY=0.287;entryDx=0;entryDy=0;fillColor=#dae8fc;strokeColor=#6c8ebf;entryPerimeter=0;" parent="UBGJ6ZkFQAMO-ZRIG8c_-109" target="UBGJ6ZkFQAMO-ZRIG8c_-23" edge="1">
          <mxGeometry width="50" height="50" relative="1" as="geometry">
            <mxPoint x="260" y="260" as="sourcePoint" />
            <mxPoint x="414" y="330" as="targetPoint" />
          </mxGeometry>
        </mxCell>
        <mxCell id="UBGJ6ZkFQAMO-ZRIG8c_-25" value="L" style="ellipse;whiteSpace=wrap;html=1;aspect=fixed;fillColor=#dae8fc;strokeColor=#6c8ebf;" parent="UBGJ6ZkFQAMO-ZRIG8c_-109" vertex="1">
          <mxGeometry y="290" width="30" height="30" as="geometry" />
        </mxCell>
        <mxCell id="UBGJ6ZkFQAMO-ZRIG8c_-26" value="" style="endArrow=none;dashed=1;html=1;dashPattern=1 3;strokeWidth=2;rounded=0;entryX=1;entryY=0;entryDx=0;entryDy=0;fillColor=#dae8fc;strokeColor=#6c8ebf;" parent="UBGJ6ZkFQAMO-ZRIG8c_-109" target="UBGJ6ZkFQAMO-ZRIG8c_-25" edge="1">
          <mxGeometry width="50" height="50" relative="1" as="geometry">
            <mxPoint x="60" y="260" as="sourcePoint" />
            <mxPoint x="130" y="330" as="targetPoint" />
          </mxGeometry>
        </mxCell>
        <mxCell id="UBGJ6ZkFQAMO-ZRIG8c_-110" value="&lt;font style=&quot;font-size: 8px;&quot;&gt;(S, -,7,J)&lt;/font&gt;" style="whiteSpace=wrap;html=1;aspect=fixed;fillColor=#d5e8d4;strokeColor=#82b366;" parent="1" vertex="1">
          <mxGeometry x="680" y="760" width="40" height="40" as="geometry" />
        </mxCell>
        <mxCell id="UBGJ6ZkFQAMO-ZRIG8c_-111" value="(S,-,7,F)" style="whiteSpace=wrap;html=1;aspect=fixed;fillColor=#d5e8d4;strokeColor=#82b366;fontSize=8;" parent="1" vertex="1">
          <mxGeometry x="640" y="720" width="40" height="40" as="geometry" />
        </mxCell>
      </root>
    </mxGraphModel>
  </diagram>
  <diagram id="UZx897zU6qOcQ108sA23" name="Part-2">
    <mxGraphModel dx="1114" dy="796" grid="1" gridSize="10" guides="1" tooltips="1" connect="1" arrows="1" fold="1" page="1" pageScale="1" pageWidth="827" pageHeight="1169" math="0" shadow="0">
      <root>
        <mxCell id="0" />
        <mxCell id="1" parent="0" />
      </root>
    </mxGraphModel>
  </diagram>
</mxfile>
